<?xml version="1.0" encoding="UTF-8" standalone="no"?>
<!-- Uploaded to: SVG Repo, www.svgrepo.com, Transformed by: SVG Repo Mixer Tools -->

<svg
   fill="#7885ab"
   height="370"
   width="940"
   version="1.1"
   viewBox="-41.72 -41.72 588.205 231.5275"
   enable-background="new 0 0 417.164 417.164"
   stroke="#7885ab"
   stroke-width="0.00417164"
   id="svg1"
   xmlns="http://www.w3.org/2000/svg"
   xmlns:svg="http://www.w3.org/2000/svg">
  <defs
     id="defs1">
    <rect
       x="310.27396"
       y="565.06848"
       width="322.60275"
       height="500"
       id="rect10" />
    <linearGradient
       id="swatch8">
      <stop
         style="stop-color:#7885ab;stop-opacity:1;"
         offset="0"
         id="stop8" />
    </linearGradient>
  </defs>
  <g
     id="SVGRepo_iconCarrier"
     transform="translate(0,-123.14417)">
    <path
       d="m 435.76055,261.73998 h -52.94691 l 6.43373,-63.98874 c 0.1945,-1.93481 -0.43851,-3.86135 -1.74305,-5.30443 -1.30455,-1.44214 -3.1577,-2.26506 -5.10259,-2.26506 H 370.9333 V 154.4031 h 11.46751 c 3.79988,0 6.88051,-3.08064 6.88051,-6.88051 v -23.85244 c 0,-3.79988 -3.08063,-6.88052 -6.88051,-6.88052 -3.79988,0 -6.88051,3.08064 -6.88051,6.88052 v 16.97192 h -4.587 v -27.06334 c 0,-11.38219 -9.25934,-20.641533 -20.64154,-20.641533 -11.3822,0 -20.64153,9.259343 -20.64153,20.641533 v 76.60302 h -11.46752 c -1.9449,0 -3.79804,0.82292 -5.10259,2.26506 -1.30454,1.44216 -1.93755,3.36871 -1.74306,5.30443 l 6.43373,63.98874 h -50.77908 l 8.71989,-4.11179 c 3.43751,-1.62105 4.90994,-5.72092 3.2889,-9.1575 L 221.47209,126.46638 c -1.62014,-3.43658 -5.72185,-4.90809 -9.15751,-3.28888 l -26.69638,12.58675 v -2.03113 c 0,-3.79987 -3.08063,-6.88051 -6.88052,-6.88051 h -33.48515 v -5.47597 c 0,-3.79987 -3.08063,-6.88051 -6.88051,-6.88051 H 98.00636 c -3.79988,0 -6.880512,3.08064 -6.880512,6.88051 V 261.73998 H 66.814709 c -3.799877,0 -6.88051,3.08064 -6.88051,6.88052 v 24.77534 c 0,3.79988 3.080633,6.88051 6.88051,6.88051 H 435.76055 c 3.79987,0 6.88051,-3.08063 6.88051,-6.88051 V 268.6205 c 0,-3.79988 -3.08064,-6.88052 -6.88051,-6.88052 z m -92.3493,-148.16034 c 0,-3.79437 3.08705,-6.8805 6.88051,-6.8805 3.79345,0 6.88051,3.08613 6.88051,6.8805 v 76.60303 h -13.76102 z m -17.62145,90.36405 h 49.00392 l -5.81082,57.79629 h -37.38227 z m -113.83026,-65.38504 51.6598,109.55792 -24.06344,11.34642 -51.6598,-109.55792 z m 13.45553,123.18133 H 185.6182 V 177.33996 Z M 171.85718,140.61364 V 261.73998 H 145.25253 V 140.61364 Z m -66.97031,-12.35649 h 26.60464 v 5.47597 128.00686 H 104.88687 Z M 428.88003,286.51533 H 73.69522 V 275.501 h 355.18481 z"
       id="path1"
       style="fill:#00acc6;fill-opacity:1;stroke:#444444;stroke-width:4.06738;stroke-linejoin:miter;stroke-dasharray:none;stroke-opacity:1" />
    <text
       xml:space="preserve"
       style="font-style:normal;font-variant:normal;font-weight:normal;font-stretch:normal;font-size:65.078px;line-height:0;font-family:'Berlin Sans FB';-inkscape-font-specification:'Berlin Sans FB';letter-spacing:0.7509px;fill:#ffffa1;fill-opacity:1;stroke:#444444;stroke-width:4.06738;stroke-linejoin:round;stroke-dasharray:none;stroke-opacity:1"
       x="207.14865"
       y="264.57651"
       id="text1"
       transform="matrix(0.98094005,-0.19432843,0.19690742,0.98042208,0,0)"><tspan
         style="font-style:normal;font-variant:normal;font-weight:bold;font-stretch:normal;font-size:65.078px;line-height:0;font-family:'Berlin Sans FB';-inkscape-font-specification:'Berlin Sans FB';text-align:center;letter-spacing:0.7509px;text-anchor:middle;fill:#ffff7b;fill-opacity:1;stroke:#444444;stroke-width:4.06738;stroke-linecap:round;stroke-linejoin:round;stroke-dasharray:none;stroke-opacity:1;paint-order:normal"
         x="207.52411"
         y="264.57651"
         id="tspan10"
         dx="0">My collection shelf</tspan></text>
    <text
       xml:space="preserve"
       transform="matrix(0.62575,0,0,0.62575,-41.72,81.42417)"
       id="text10"
       style="font-style:normal;font-variant:normal;font-weight:normal;font-stretch:normal;font-size:128px;font-family:'Berlin Sans FB Demi';-inkscape-font-specification:'Berlin Sans FB Demi';letter-spacing:1.3px;white-space:pre;shape-inside:url(#rect10);display:inline;fill:#000080;stroke:#bbbbbb;stroke-width:3" />
  </g>
</svg>
